<?xml version="1.0" encoding="utf-8"?>
<!-- Generator: Adobe Illustrator 24.3.0, SVG Export Plug-In . SVG Version: 6.00 Build 0)  -->
<svg version="1.1" id="Capa_1" xmlns="http://www.w3.org/2000/svg" xmlns:xlink="http://www.w3.org/1999/xlink" x="0px" y="0px"
	 viewBox="0 0 512 512" style="enable-background:new 0 0 512 512;" xml:space="preserve">
<style type="text/css">
	.st0{fill:#8BC852;}
	.st1{fill:#2F373B;}
	.st2{fill:#181E21;}
	.st3{fill:#F2F2F2;}
	.st4{fill:#545F63;}
	.st5{fill:#D1D1D1;}
	.st6{fill:#FFFFFF;}
</style>
<g>
	<path class="st0" d="M512,256c0,11.5-0.8,22.8-2.2,33.9C493.2,415.2,26,421.7,4.2,302.4C1.4,287.4,0,271.9,0,256
		C0,114.6,114.6,0,256,0S512,114.6,512,256z"/>
	<path class="st1" d="M66.5,49.4c-3.7,3.5-7.2,7-10.7,10.7c-15.5,16.6-15.5,42.5,0,59c10.9,11.6,22.9,22.1,36.1,31.4
		c2.8,1.9,6.4,1.9,9.2,0c22.1-15.5,40.8-34.2,56.3-56.3c1.9-2.8,1.9-6.4,0-9.2c-9.1-13-19.4-24.9-30.9-35.6
		C109.7,33.5,83.5,33.5,66.5,49.4z"/>
	<path class="st1" d="M457.5,49.4c3.7,3.5,7.2,7,10.7,10.7c15.5,16.6,15.5,42.5,0,59c-10.9,11.6-22.9,22.1-36.1,31.4
		c-2.8,1.9-6.4,1.9-9.2,0c-22.1-15.5-40.8-34.2-56.3-56.3c-1.9-2.8-1.9-6.4,0-9.2c9.1-13,19.4-24.9,30.9-35.6
		C414.3,33.5,440.5,33.5,457.5,49.4L457.5,49.4z"/>
	<g>
		<path class="st2" d="M439.9,72.2c1.8,1.7,3.6,3.5,5.3,5.3c7.7,8.3,7.7,21.2,0,29.5c-5.4,5.8-11.4,11-18,15.7c-1.4,1-3.2,1-4.6,0
			c-11-7.7-20.4-17.1-28.1-28.1c-1-1.4-1-3.2,0-4.6c4.6-6.5,9.7-12.4,15.4-17.8C418.4,64.2,431.5,64.2,439.9,72.2z"/>
		<path class="st2" d="M84.1,72.2c-1.8,1.7-3.6,3.5-5.3,5.3c-7.7,8.3-7.7,21.2,0,29.5c5.4,5.8,11.4,11,18,15.7c1.4,1,3.2,1,4.6,0
			c11-7.7,20.4-17.1,28.1-28.1c1-1.4,1-3.2,0-4.6c-4.6-6.5-9.7-12.4-15.4-17.8C105.6,64.2,92.6,64.2,84.1,72.2z"/>
	</g>
	<path class="st1" d="M509.8,289.9C493.2,415.2,385.9,512,256,512C130.5,512,26,421.6,4.2,302.4C64.3,223.7,157.5,168.2,262,168.2
		C360.9,168.2,449.6,217.9,509.8,289.9L509.8,289.9z"/>
	<path class="st3" d="M483.6,254c0-111.4-99.2-224.3-221.6-224.3S40.4,142.6,40.4,254S139.6,400.8,262,400.8S483.6,365.4,483.6,254
		L483.6,254z"/>
	<g>
		<path class="st4" d="M184.6,236.6c-41.8,41.8-67.5,83.9-101,50.4s-26.8-94.6,15-136.4s102.9-48.6,136.4-15
			S226.4,194.8,184.6,236.6L184.6,236.6z"/>
		<path class="st4" d="M339.4,236.6c41.8,41.8,67.5,83.9,101,50.4s26.8-94.6-15-136.4s-102.9-48.6-136.4-15S297.6,194.8,339.4,236.6
			L339.4,236.6z"/>
	</g>
	<g>
		<path class="st5" d="M205.1,285.3c-4.1,0-7.5-3.4-7.5-7.5s3.4-7.5,7.5-7.5c46.7,0,49.3-47.6,49.4-49.7c0.2-4.1,3.7-7.3,7.8-7.2
			c4.1,0.2,7.3,3.6,7.2,7.8c0,0.6-0.7,16.1-8.8,31.6C253.1,267.7,237.2,285.3,205.1,285.3L205.1,285.3z"/>
		<path class="st5" d="M318.9,285.3c-32,0-47.9-17.7-55.6-32.5c-8.1-15.5-8.7-31-8.8-31.6c-0.2-4.1,3.1-7.6,7.2-7.8
			c4.1-0.2,7.6,3.1,7.8,7.2c0.1,2.1,2.7,49.7,49.4,49.7c4.1,0,7.5,3.4,7.5,7.5S323,285.3,318.9,285.3z"/>
	</g>
	<g>
		<circle class="st1" cx="339.2" cy="187" r="27.1"/>
		<circle class="st6" cx="350.5" cy="182.2" r="11.6"/>
		<circle class="st1" cx="184.9" cy="187" r="27.1"/>
		<path class="st2" d="M191.2,213.3c-2,0.5-4.2,0.8-6.3,0.8c-15,0-27.1-12.2-27.1-27.1s12.2-27.1,27.1-27.1c2.2,0,4.3,0.3,6.3,0.8
			c-11.9,2.8-20.8,13.6-20.8,26.4S179.3,210.5,191.2,213.3z"/>
		<path class="st2" d="M345.5,213.3c-2,0.5-4.2,0.8-6.3,0.8c-15,0-27.1-12.2-27.1-27.1s12.2-27.1,27.1-27.1c2.2,0,4.3,0.3,6.3,0.8
			c-11.9,2.8-20.8,13.6-20.8,26.4C324.7,199.8,333.6,210.5,345.5,213.3z"/>
		<circle class="st6" cx="196.2" cy="182.2" r="11.6"/>
	</g>
	<path class="st1" d="M283.6,228.4l12.6-21.8c9.9-17.1-2.5-38.5-22.2-38.5h-25.1c-19.7,0-32.1,21.4-22.2,38.5l12.6,21.8
		C249,245.5,273.7,245.5,283.6,228.4z"/>
</g>
</svg>
